PathFileType	4	(X/Y/Z)	/Users/niels/Desktop/University/Third Semester/Perception and Action/Exam/Gymnastics Motion Tracking/Code for Gym Tracking/Analyzed Data/Webcam_Backflip/id5_7_trajectory_Sports2D/id5_7_trajectory_Sports2D_px_person00.trc
DataRate	CameraRate	NumFrames	NumMarkers	Units	OrigDataRate	OrigDataStartFrame	OrigNumFrames
29.77272727272727	29.77272727272727	9	22	m	29.77272727272727	16	132
Frame#	Time	Hip			RHip			RKnee			RAnkle			RBigToe			RSmallToe			RHeel			LHip			LKnee			LAnkle			LBigToe			LSmallToe			LHeel			Neck			Head			Nose			RShoulder			RElbow			RWrist			LShoulder			LElbow			LWrist		
		X1	Y1	Z1	X2	Y2	Z2	X3	Y3	Z3	X4	Y4	Z4	X5	Y5	Z5	X6	Y6	Z6	X7	Y7	Z7	X8	Y8	Z8	X9	Y9	Z9	X10	Y10	Z10	X11	Y11	Z11	X12	Y12	Z12	X13	Y13	Z13	X14	Y14	Z14	X15	Y15	Z15	X16	Y16	Z16	X17	Y17	Z17	X18	Y18	Z18	X19	Y19	Z19	X20	Y20	Z20	X21	Y21	Z21	X22	Y22	Z22
16	0.5374045801526718	1.0410431757734302	-0.7370364075457517	0.0	1.040457213966828	-0.7364265551818308	0.0	1.058601632995246	-0.8785983964615605	0.0	0.990678415508388	-0.9907318219745294	0.0	0.9944543317189711	-1.0365998956831968	0.0	0.9889655812015309	-1.0291968266872722	0.0	0.9708094395690885	-0.9979849547685252	0.0	1.0445177854321452	-0.735794736805715	0.0	1.0729256115321195	-0.864126314805155	0.0	1.0011413861322447	-0.9792632537720803	0.0	1.0179649590854891	-1.0238407974147115	0.0	1.003235911244557	-1.0191719978639855	0.0	0.9735245143838177	-0.9858458266205343	0.0	0.9359576345392407	-0.6237394872465404	0.0	0.865339655900657	-0.621316659972742	0.0	0.9116298666593698	-0.599800681868808	0.0	0.9391156967214279	-0.6082503845544577	0.0	0.972536848216011	-0.5452333385178574	0.0	0.9478927857178819	-0.49124048453995545	0.0	0.9500518457483188	-0.630083644584749	0.0	1.0031214467034915	-0.6051259820689174	0.0	1.0238604408517715	-0.5637397280173644	0.0
17	0.5709923664122137	1.054742034979029	-0.6902329254296887	0.0	1.0559936325057115	-0.6898458121823069	0.0	1.0884220782094076	-0.8232220988594803	0.0	1.015138661617196	-0.936816057400161	0.0	1.0100531871546141	-0.9853403499077321	0.0	1.0073278179152723	-0.9809234720401822	0.0	0.9955598218225286	-0.9452298148939193	0.0	1.056469103053064	-0.6886425676318878	0.0	1.1051139837683734	-0.8059040321110984	0.0	1.024961575980634	-0.923715440711474	0.0	1.0351796627887062	-0.9742656329508317	0.0	1.0204044556576815	-0.972211913597156	0.0	0.9985480762178944	-0.9315446641991526	0.0	0.9252405406667621	-0.6108172790468708	0.0	0.8542162346990384	-0.6363648555120945	0.0	0.8950023324159107	-0.6008525195153571	0.0	0.9298369522160314	-0.5900812993740617	0.0	0.9543431381661504	-0.5198352472712119	0.0	0.9176293413693214	-0.4687891362853357	0.0	0.9384253875057922	-0.6151706659429707	0.0	0.9792417126665591	-0.5765423010587597	0.0	0.9970068790498379	-0.5487045405423654	0.0
18	0.6045801526717558	1.0652880049251603	-0.6462938003956572	0.0	1.067491905999256	-0.6458313675024978	0.0	1.1206042543067651	-0.7594068475968289	0.0	1.0475283320935256	-0.8749539074024691	0.0	1.0395749145931104	-0.9256261083400806	0.0	1.038094949618905	-0.9226188796460464	0.0	1.0293041808256347	-0.8849844391734303	0.0	1.0659424135246542	-0.6447222354626637	0.0	1.1388293732672687	-0.7431642523506685	0.0	1.056987706420577	-0.8617867385787539	0.0	1.0646890453945475	-0.9166925055476355	0.0	1.0500184253999079	-0.916993317266529	0.0	1.032462393891698	-0.8716656277059494	0.0	0.9180634695323955	-0.6025568542501752	0.0	0.8526499973599925	-0.653202485466549	0.0	0.8849355077106282	-0.6066984024010547	0.0	0.923067717836056	-0.5785449851634614	0.0	0.9417184386566972	-0.5048898062201622	0.0	0.8974828176244146	-0.4556628369446459	0.0	0.9311318698871107	-0.6057275965072203	0.0	0.9574297729665282	-0.5526565370727454	0.0	0.9677775472979049	-0.535242088530029	0.0
19	0.6381679389312978	1.0730603604241256	-0.607523830938066	0.0	1.075207292319574	-0.605821745921082	0.0	1.150940631160919	-0.6874985233445514	0.0	1.0860206240770112	-0.8074690134757495	0.0	1.0822892214919428	-0.8586101588751822	0.0	1.0807678722392202	-0.8563309838595795	0.0	1.070170675696302	-0.8198633256580847	0.0	1.0730028337589639	-0.6064533024257756	0.0	1.1693862980882483	-0.6782419500781521	0.0	1.095259879086454	-0.7964935242609545	0.0	1.106185010769186	-0.8522784306130181	0.0	1.0923809949419947	-0.8545922969172166	0.0	1.0738489517056844	-0.809758312949542	0.0	0.9159486363847699	-0.5989570955885224	0.0	0.8597805333169252	-0.6685103142273896	0.0	0.8819811457819398	-0.6154223610900891	0.0	0.9201949446586685	-0.5730816017151905	0.0	0.9358253952725472	-0.498122117483574	0.0	0.887302263520401	-0.4486820652543748	0.0	0.9299510117274139	-0.6018209338801704	0.0	0.9424568449550161	-0.5361922607857045	0.0	0.9401668181511053	-0.5205387517939011	0.0
20	0.6717557251908397	1.0795942925875492	-0.575225204631493	0.0	1.0806482544018892	-0.5707014585287519	0.0	1.1731547651652963	-0.6109413830060257	0.0	1.1269756302844156	-0.7369258919175606	0.0	1.1331577517244285	-0.7853002087475213	0.0	1.1308711410290222	-0.7841098570883286	0.0	1.1146087832094378	-0.7523766590683237	0.0	1.0790627007434195	-0.5753622965714359	0.0	1.192750717959521	-0.6135525213568888	0.0	1.1361340518166203	-0.7297826306599992	0.0	1.1554872367571747	-0.7809953309304862	0.0	1.1435011986776162	-0.7848941879179058	0.0	1.1195595622763057	-0.7475661059740163	0.0	0.9197397364040619	-0.5995694003667086	0.0	0.8736409210469989	-0.680825541325915	0.0	0.8859355743411738	-0.6256715382380604	0.0	0.922016513993795	-0.5725642267312926	0.0	0.9365403360912871	-0.4969072723156958	0.0	0.8854413620521651	-0.4454684474834877	0.0	0.9354665100575239	-0.6025165195617684	0.0	0.9375041923215363	-0.5285792034094225	0.0	0.9211635157105884	-0.5054242326648659	0.0
21	0.7053435114503818	1.0868748936698331	-0.5495904033166865	0.0	1.0857615276565722	-0.5410206503793201	0.0	1.1817800290510623	-0.536010797495539	0.0	1.1652730183728761	-0.6657963618875183	0.0	1.1837548429183622	-0.7069311325710863	0.0	1.1806093449019517	-0.7078824752675256	0.0	1.1575603401695398	-0.6844169027896079	0.0	1.0864685451614409	-0.5517410446486154	0.0	1.2063923010519813	-0.5522173196202135	0.0	1.1748387443114878	-0.6626876898126765	0.0	1.2048845207750432	-0.7030712200651815	0.0	1.1953684803358702	-0.7079669129620664	0.0	1.1649296738132484	-0.6848664209691562	0.0	0.9297799457701146	-0.6036750016101838	0.0	0.89254269950806	-0.6904282427061655	0.0	0.8963969963177153	-0.636525401127415	0.0	0.9288483946966416	-0.5758297724201286	0.0	0.9429103536274067	-0.49885508970824266	0.0	0.8896215871793832	-0.4448579277735144	0.0	0.9475120802145308	-0.6063384947762025	0.0	0.9433383216242284	-0.5289716936276257	0.0	0.9161733433534324	-0.4932777585769711	0.0
22	0.7389312977099237	1.0961504103394084	-0.5296781635445617	0.0	1.0918418715634035	-0.5168710675043748	0.0	1.1749053560735014	-0.470039949064966	0.0	1.1954351727018155	-0.5961811007499135	0.0	1.224653213426834	-0.6257876745455584	0.0	1.2211046887562302	-0.6297252079405694	0.0	1.1933645861570572	-0.6169932957272324	0.0	1.0970406249848028	-0.5343686987583374	0.0	1.2098222607641826	-0.4981823498904875	0.0	1.2062823854033389	-0.5962472012291007	0.0	1.2452141609956047	-0.6209112286701418	0.0	1.2381247759264196	-0.6259956456338972	0.0	1.204299625440326	-0.6207505881634053	0.0	0.9461036332886731	-0.6104481594456616	0.0	0.9158570105498869	-0.698437605784625	0.0	0.9130681183942527	-0.6472312645086888	0.0	0.9407845687466607	-0.5818609687156058	0.0	0.9535802808247066	-0.5020613048412425	0.0	0.8974619349714744	-0.44668785588280674	0.0	0.9656795070142241	-0.6118434617654153	0.0	0.9592200652674903	-0.5348055292149434	0.0	0.926370966016392	-0.48671965507358733	0.0
23	0.7725190839694657	1.1074114221351672	-0.5139597307768932	0.0	1.0991569683612357	-0.4980229590554865	0.0	1.154336594689288	-0.41974833711164516	0.0	1.2128335285383447	-0.5303097302961969	0.0	1.2479541026264305	-0.546160480092798	0.0	1.2448872986081216	-0.5527057805564161	0.0	1.2168826832623343	-0.5511002900338626	0.0	1.1110408368979812	-0.5212156931590644	0.0	1.204492388912717	-0.4555759979964285	0.0	1.2259805524979608	-0.5324616519814053	0.0	1.2686022700257293	-0.5396814952549748	0.0	1.2632224144192155	-0.5440749308487854	0.0	1.232060072223611	-0.5556570468309088	0.0	0.9683828764244619	-0.6190526376175056	0.0	0.9438786415636367	-0.7060389254766938	0.0	0.935734444444553	-0.6575359684626526	0.0	0.9577746380208215	-0.5897638524690538	0.0	0.96716916345781	-0.5054016900495123	0.0	0.9069907312534974	-0.45135707304854705	0.0	0.9894792697846551	-0.617984858722854	0.0	0.9839308476391726	-0.5431106062385392	0.0	0.9493215382262067	-0.4862620477232176	0.0
24	0.8061068702290077	1.11990053236077	-0.5010868137814659	0.0	1.107452858609432	-0.4840734662364725	0.0	1.1246636091246671	-0.3897833907203195	0.0	1.2145989910523087	-0.47115058193789444	0.0	1.2492060846142958	-0.4743294831220295	0.0	1.2476060775195579	-0.48170868035761005	0.0	1.2244146892984467	-0.48889592452981395	0.0	1.1273617430745617	-0.5105548712096316	0.0	1.1928504293298383	-0.4278121308575119	0.0	1.230918040131324	-0.47463831953145813	0.0	1.270512830675232	-0.46637281848988	0.0	1.266151507363521	-0.46946547166820396	0.0	1.2439072045788324	-0.49253944175199094	0.0	0.9959085594713312	-0.6285822734610063	0.0	0.9772443398759044	-0.7138696520347635	0.0	0.964056656722736	-0.6677691709839189	0.0	0.9796850935847072	-0.5986412799148433	0.0	0.9825754495299086	-0.5087431481982052	0.0	0.9171464804936964	-0.45948601100843617	0.0	1.018318287286564	-0.6241259853312914	0.0	1.015743525205782	-0.5516811406189267	0.0	0.9800364218736698	-0.49140456949350514	0.0
